<svg width="16" height="16" viewBox="0 0 16 16" fill="none" xmlns="http://www.w3.org/2000/svg">
<path d="M14.7913 7.00499H3.62126L8.50126 2.12499C8.89126 1.73499 8.89126 1.09499 8.50126 0.704992C8.31442 0.517739 8.06077 0.412506 7.79626 0.412506C7.53174 0.412506 7.27809 0.517739 7.09126 0.704992L0.501255 7.29499C0.111255 7.68499 0.111255 8.31499 0.501255 8.70499L7.09126 15.295C7.48126 15.685 8.11126 15.685 8.50126 15.295C8.89126 14.905 8.89126 14.275 8.50126 13.885L3.62126 9.00499H14.7913C15.3413 9.00499 15.7913 8.55499 15.7913 8.00499C15.7913 7.45499 15.3413 7.00499 14.7913 7.00499Z" fill="#2F2E42" fill-opacity="0.8"/>
</svg>
