<svg width="14" height="14" viewBox="0 0 14 14" fill="none" xmlns="http://www.w3.org/2000/svg">
<path d="M13.3 0.709994C13.1132 0.522742 12.8595 0.417509 12.595 0.417509C12.3305 0.417509 12.0768 0.522742 11.89 0.709994L7 5.58999L2.11 0.699994C1.92317 0.512742 1.66952 0.407509 1.405 0.407509C1.14048 0.407509 0.886833 0.512742 0.700001 0.699994C0.310001 1.08999 0.310001 1.71999 0.700001 2.10999L5.59 6.99999L0.700001 11.89C0.310001 12.28 0.310001 12.91 0.700001 13.3C1.09 13.69 1.72 13.69 2.11 13.3L7 8.40999L11.89 13.3C12.28 13.69 12.91 13.69 13.3 13.3C13.69 12.91 13.69 12.28 13.3 11.89L8.41 6.99999L13.3 2.10999C13.68 1.72999 13.68 1.08999 13.3 0.709994Z" fill="#2F2E42"/>
</svg>
